<svg width="283" height="103" viewBox="0 0 283 103" fill="none" xmlns="http://www.w3.org/2000/svg">
<g filter="url(#filter0_d)">
<path d="M278.504 12.0413L24.4711 16.314L13.2066 75.7438L261.802 89.3388L278.504 12.0413Z" fill="#EDE912" fill-opacity="0.9"/>
</g>
<g filter="url(#filter1_d)">
<path d="M272.678 0L26.4132 28.7438L24.0826 89.3388L254.033 72.2479L272.678 0Z" fill="#0CA195" fill-opacity="0.88"/>
</g>
<circle cx="135.562" cy="97.4959" r="4.27273" stroke="black"/>
<path d="M3.49588 59.0413V66.0331" stroke="black"/>
<path d="M0 62.5372H6.99174" stroke="black"/>
<path d="M161.975 95.5537V102.545" stroke="black"/>
<path d="M158.479 99.0496H165.471" stroke="black"/>
<path d="M278.504 66.0331V73.0248" stroke="black"/>
<path d="M275.008 69.5289H282" stroke="black"/>
<path d="M5.96509 92.4L12.4615 87.9601L13.1851 95.7955L5.96509 92.4Z" stroke="black"/>
<path d="M88.2354 33.84H92.1594L98.3874 63H94.5354L93.2034 55.656H87.2634L85.8594 63H82.0434L88.2354 33.84ZM92.6634 52.74L90.2154 39.6L87.8034 52.74H92.6634ZM108.474 63.288C107.226 63.288 106.05 62.688 104.946 61.488V63H101.094V33.84H104.946V43.848C106.074 42.552 107.382 41.904 108.87 41.904C110.766 41.904 112.026 42.72 112.65 44.352C113.298 45.96 113.622 47.748 113.622 49.716V54.756C113.622 60.444 111.906 63.288 108.474 63.288ZM107.682 60.264C108.57 60.264 109.134 59.82 109.374 58.932C109.638 58.02 109.77 56.628 109.77 54.756V49.716C109.77 48.18 109.626 47.004 109.338 46.188C109.05 45.348 108.45 44.928 107.538 44.928C106.698 44.928 105.834 45.276 104.946 45.972V59.328C105.738 59.952 106.65 60.264 107.682 60.264ZM122.848 63.288C120.64 63.288 119.068 62.64 118.132 61.344C117.22 60.024 116.764 58.116 116.764 55.62V49.572C116.764 47.076 117.22 45.18 118.132 43.884C119.068 42.564 120.64 41.904 122.848 41.904C125.032 41.904 126.58 42.564 127.492 43.884C128.428 45.18 128.896 47.076 128.896 49.572V55.62C128.896 58.116 128.428 60.024 127.492 61.344C126.58 62.64 125.032 63.288 122.848 63.288ZM122.848 60.444C123.544 60.444 124.048 60.24 124.36 59.832C124.672 59.424 124.864 58.92 124.936 58.32C125.008 57.72 125.044 56.904 125.044 55.872V49.356C125.044 48.324 125.008 47.508 124.936 46.908C124.864 46.284 124.672 45.768 124.36 45.36C124.048 44.952 123.544 44.748 122.848 44.748C122.152 44.748 121.636 44.952 121.3 45.36C120.988 45.768 120.796 46.284 120.724 46.908C120.652 47.508 120.616 48.324 120.616 49.356V55.872C120.616 56.904 120.652 57.72 120.724 58.32C120.796 58.92 120.988 59.424 121.3 59.832C121.636 60.24 122.152 60.444 122.848 60.444ZM135.405 63.288C134.277 63.288 133.473 62.88 132.993 62.064C132.513 61.248 132.273 60.24 132.273 59.04V42.192H136.125V57.888C136.125 58.68 136.245 59.28 136.485 59.688C136.725 60.072 137.157 60.264 137.781 60.264C138.549 60.264 139.449 59.832 140.481 58.968V42.192H144.333V63H140.481V60.948C138.825 62.508 137.133 63.288 135.405 63.288ZM153.816 63.288C150.816 63.288 149.316 61.632 149.316 58.32V44.748H147.12V42.192H149.316V36.108H153.168V42.192H156.516V44.748H153.168V58.068C153.168 58.908 153.3 59.496 153.564 59.832C153.828 60.168 154.332 60.336 155.076 60.336C155.556 60.336 156.024 60.3 156.48 60.228V63.072C155.52 63.216 154.632 63.288 153.816 63.288ZM175.421 63.324C173.381 63.324 171.785 62.916 170.633 62.1C169.505 61.284 168.725 60.144 168.293 58.68C167.861 57.216 167.645 55.38 167.645 53.172V33.84H171.533V53.352C171.533 55.56 171.785 57.24 172.289 58.392C172.817 59.544 173.861 60.12 175.421 60.12C176.981 60.12 178.013 59.544 178.517 58.392C179.045 57.24 179.309 55.56 179.309 53.352V33.84H183.161V53.172C183.161 55.38 182.945 57.216 182.513 58.68C182.081 60.144 181.301 61.284 180.173 62.1C179.045 62.916 177.461 63.324 175.421 63.324ZM191.944 63.288C190.264 63.288 188.896 62.76 187.84 61.704C186.808 60.648 186.22 59.232 186.076 57.456L189.28 56.484C189.472 57.828 189.796 58.824 190.252 59.472C190.732 60.12 191.404 60.444 192.268 60.444C192.94 60.444 193.456 60.252 193.816 59.868C194.2 59.46 194.392 58.92 194.392 58.248C194.392 57.648 194.26 57.108 193.996 56.628C193.732 56.148 193.3 55.656 192.7 55.152L189.136 52.092C188.32 51.396 187.684 50.664 187.228 49.896C186.796 49.104 186.58 48.144 186.58 47.016C186.58 45.408 187.06 44.16 188.02 43.272C188.98 42.36 190.288 41.904 191.944 41.904C193.528 41.904 194.764 42.42 195.652 43.452C196.564 44.46 197.092 45.768 197.236 47.376L194.644 48.348C194.476 47.172 194.2 46.284 193.816 45.684C193.432 45.06 192.856 44.748 192.088 44.748C191.464 44.748 190.96 44.952 190.576 45.36C190.216 45.768 190.036 46.272 190.036 46.872C190.036 47.64 190.384 48.336 191.08 48.96L194.752 52.344C195.688 53.208 196.408 54.06 196.912 54.9C197.44 55.74 197.704 56.76 197.704 57.96C197.704 59.688 197.188 61.008 196.156 61.92C195.124 62.832 193.72 63.288 191.944 63.288Z" fill="white"/>
<defs>
<filter id="filter0_d" x="9.2066" y="12.0413" width="273.298" height="85.2975" filterUnits="userSpaceOnUse" color-interpolation-filters="sRGB">
<feFlood flood-opacity="0" result="BackgroundImageFix"/>
<feColorMatrix in="SourceAlpha" type="matrix" values="0 0 0 0 0 0 0 0 0 0 0 0 0 0 0 0 0 0 127 0"/>
<feOffset dy="4"/>
<feGaussianBlur stdDeviation="2"/>
<feColorMatrix type="matrix" values="0 0 0 0 0 0 0 0 0 0 0 0 0 0 0 0 0 0 0.25 0"/>
<feBlend mode="normal" in2="BackgroundImageFix" result="effect1_dropShadow"/>
<feBlend mode="normal" in="SourceGraphic" in2="effect1_dropShadow" result="shape"/>
</filter>
<filter id="filter1_d" x="20.0826" y="0" width="256.595" height="97.3388" filterUnits="userSpaceOnUse" color-interpolation-filters="sRGB">
<feFlood flood-opacity="0" result="BackgroundImageFix"/>
<feColorMatrix in="SourceAlpha" type="matrix" values="0 0 0 0 0 0 0 0 0 0 0 0 0 0 0 0 0 0 127 0"/>
<feOffset dy="4"/>
<feGaussianBlur stdDeviation="2"/>
<feColorMatrix type="matrix" values="0 0 0 0 0 0 0 0 0 0 0 0 0 0 0 0 0 0 0.25 0"/>
<feBlend mode="normal" in2="BackgroundImageFix" result="effect1_dropShadow"/>
<feBlend mode="normal" in="SourceGraphic" in2="effect1_dropShadow" result="shape"/>
</filter>
</defs>
</svg>
