<svg width="283" height="103" viewBox="0 0 283 103" fill="none" xmlns="http://www.w3.org/2000/svg">
<g filter="url(#filter0_d)">
<path d="M278.504 12.0414L24.4711 16.3141L13.2066 75.7439L261.802 89.3389L278.504 12.0414Z" fill="#EDE912" fill-opacity="0.9"/>
</g>
<g filter="url(#filter1_d)">
<path d="M272.678 0L26.4132 28.7438L24.0826 89.3388L254.033 72.2479L272.678 0Z" fill="#0CA195" fill-opacity="0.88"/>
</g>
<circle cx="135.562" cy="97.4959" r="4.27273" stroke="black"/>
<path d="M3.49585 59.0413V66.033" stroke="black"/>
<path d="M0 62.5371H6.99174" stroke="black"/>
<path d="M161.975 95.5537V102.545" stroke="black"/>
<path d="M158.479 99.0496H165.471" stroke="black"/>
<path d="M278.504 66.0331V73.0248" stroke="black"/>
<path d="M275.008 69.5289H282" stroke="black"/>
<path d="M5.96509 92.4001L12.4615 87.9601L13.1851 95.7955L5.96509 92.4001Z" stroke="black"/>
<path d="M108.272 33.84H114.968C117.608 33.84 119.564 34.44 120.836 35.64C122.108 36.816 122.744 38.652 122.744 41.148C122.744 44.868 121.352 46.92 118.568 47.304C120.296 47.712 121.556 48.528 122.348 49.752C123.14 50.952 123.536 52.596 123.536 54.684C123.536 57.3 122.912 59.34 121.664 60.804C120.44 62.268 118.568 63 116.048 63H108.272V33.84ZM114.752 46.008C116.432 46.008 117.596 45.648 118.244 44.928C118.892 44.184 119.216 42.924 119.216 41.148C119.216 39.852 119.012 38.904 118.604 38.304C118.22 37.68 117.632 37.284 116.84 37.116C116.048 36.948 114.872 36.864 113.312 36.864H112.34V46.008H114.752ZM115.076 60.084C116.276 60.084 117.2 59.904 117.848 59.544C118.52 59.16 118.988 58.584 119.252 57.816C119.516 57.048 119.648 56.004 119.648 54.684C119.648 52.812 119.264 51.42 118.496 50.508C117.728 49.572 116.48 49.104 114.752 49.104H112.34V60.084H115.076ZM132.551 63.288C130.343 63.288 128.771 62.64 127.835 61.344C126.923 60.024 126.467 58.116 126.467 55.62V49.572C126.467 47.076 126.923 45.18 127.835 43.884C128.771 42.564 130.343 41.904 132.551 41.904C134.735 41.904 136.283 42.564 137.195 43.884C138.131 45.18 138.599 47.076 138.599 49.572V55.62C138.599 58.116 138.131 60.024 137.195 61.344C136.283 62.64 134.735 63.288 132.551 63.288ZM132.551 60.444C133.247 60.444 133.751 60.24 134.063 59.832C134.375 59.424 134.567 58.92 134.639 58.32C134.711 57.72 134.747 56.904 134.747 55.872V49.356C134.747 48.324 134.711 47.508 134.639 46.908C134.567 46.284 134.375 45.768 134.063 45.36C133.751 44.952 133.247 44.748 132.551 44.748C131.855 44.748 131.339 44.952 131.003 45.36C130.691 45.768 130.499 46.284 130.427 46.908C130.355 47.508 130.319 48.324 130.319 49.356V55.872C130.319 56.904 130.355 57.72 130.427 58.32C130.499 58.92 130.691 59.424 131.003 59.832C131.339 60.24 131.855 60.444 132.551 60.444ZM145.864 63.288C145.072 63.288 144.352 63.06 143.704 62.604C143.08 62.148 142.588 61.548 142.228 60.804C141.868 60.06 141.688 59.28 141.688 58.464C141.688 56.832 142.036 55.512 142.732 54.504C143.428 53.472 144.316 52.656 145.396 52.056C146.476 51.456 147.976 50.772 149.896 50.004V48.528C149.896 47.16 149.752 46.2 149.464 45.648C149.2 45.072 148.648 44.784 147.808 44.784C146.344 44.784 145.612 45.768 145.612 47.736V48.78L141.796 48.636C141.844 46.332 142.372 44.64 143.38 43.56C144.388 42.456 145.948 41.904 148.06 41.904C150.052 41.904 151.492 42.456 152.38 43.56C153.292 44.64 153.748 46.284 153.748 48.492V57.996C153.748 59.556 153.868 61.224 154.108 63H150.58C150.316 61.632 150.148 60.612 150.076 59.94C149.788 60.876 149.284 61.668 148.564 62.316C147.868 62.964 146.968 63.288 145.864 63.288ZM147.376 59.976C147.88 59.976 148.372 59.784 148.852 59.4C149.332 58.992 149.68 58.608 149.896 58.248V52.344C148.864 52.92 148.06 53.424 147.484 53.856C146.932 54.264 146.464 54.744 146.08 55.296C145.72 55.848 145.54 56.508 145.54 57.276C145.54 58.14 145.696 58.812 146.008 59.292C146.32 59.748 146.776 59.976 147.376 59.976ZM157.556 42.192H161.408V45.144C162.128 43.968 162.86 43.14 163.604 42.66C164.372 42.18 165.176 41.94 166.016 41.94C166.232 41.94 166.436 41.952 166.628 41.976V46.224C165.86 45.936 165.152 45.792 164.504 45.792C163.88 45.792 163.316 45.948 162.812 46.26C162.332 46.548 161.864 47.064 161.408 47.808V63H157.556V42.192ZM173.838 63.288C172.038 63.288 170.718 62.64 169.878 61.344C169.038 60.024 168.618 57.852 168.618 54.828V50.796C168.618 48.036 168.978 45.864 169.698 44.28C170.442 42.696 171.786 41.904 173.73 41.904C174.954 41.904 176.106 42.444 177.186 43.524V33.84H181.038V63H177.186V61.668C176.178 62.748 175.062 63.288 173.838 63.288ZM174.81 60.264C175.578 60.264 176.37 60 177.186 59.472V45.828C176.298 45.228 175.482 44.928 174.738 44.928C173.226 44.928 172.47 46.38 172.47 49.284V55.152C172.47 56.832 172.626 58.104 172.938 58.968C173.25 59.832 173.874 60.264 174.81 60.264Z" fill="white"/>
<defs>
<filter id="filter0_d" x="9.2066" y="12.0414" width="273.298" height="85.2975" filterUnits="userSpaceOnUse" color-interpolation-filters="sRGB">
<feFlood flood-opacity="0" result="BackgroundImageFix"/>
<feColorMatrix in="SourceAlpha" type="matrix" values="0 0 0 0 0 0 0 0 0 0 0 0 0 0 0 0 0 0 127 0"/>
<feOffset dy="4"/>
<feGaussianBlur stdDeviation="2"/>
<feColorMatrix type="matrix" values="0 0 0 0 0 0 0 0 0 0 0 0 0 0 0 0 0 0 0.25 0"/>
<feBlend mode="normal" in2="BackgroundImageFix" result="effect1_dropShadow"/>
<feBlend mode="normal" in="SourceGraphic" in2="effect1_dropShadow" result="shape"/>
</filter>
<filter id="filter1_d" x="20.0826" y="0" width="256.595" height="97.3388" filterUnits="userSpaceOnUse" color-interpolation-filters="sRGB">
<feFlood flood-opacity="0" result="BackgroundImageFix"/>
<feColorMatrix in="SourceAlpha" type="matrix" values="0 0 0 0 0 0 0 0 0 0 0 0 0 0 0 0 0 0 127 0"/>
<feOffset dy="4"/>
<feGaussianBlur stdDeviation="2"/>
<feColorMatrix type="matrix" values="0 0 0 0 0 0 0 0 0 0 0 0 0 0 0 0 0 0 0.25 0"/>
<feBlend mode="normal" in2="BackgroundImageFix" result="effect1_dropShadow"/>
<feBlend mode="normal" in="SourceGraphic" in2="effect1_dropShadow" result="shape"/>
</filter>
</defs>
</svg>
