<svg width="283" height="103" viewBox="0 0 283 103" fill="none" xmlns="http://www.w3.org/2000/svg">
<g filter="url(#filter0_d)">
<path d="M278.504 12.0413L24.4711 16.314L13.2066 75.7438L261.802 89.3388L278.504 12.0413Z" fill="#EDE912" fill-opacity="0.9"/>
</g>
<g filter="url(#filter1_d)">
<path d="M272.678 0L26.4132 28.7438L24.0826 89.3388L254.033 72.2479L272.678 0Z" fill="#0CA195" fill-opacity="0.88"/>
</g>
<circle cx="135.562" cy="97.4959" r="4.27273" stroke="black"/>
<path d="M3.49586 59.0413V66.0331" stroke="black"/>
<path d="M0 62.5372H6.99174" stroke="black"/>
<path d="M161.975 95.5537V102.545" stroke="black"/>
<path d="M158.479 99.0496H165.471" stroke="black"/>
<path d="M278.504 66.0331V73.0248" stroke="black"/>
<path d="M275.008 69.5289H282" stroke="black"/>
<path d="M5.96509 92.4L12.4615 87.9601L13.1851 95.7955L5.96509 92.4Z" stroke="black"/>
<path d="M99.6385 63.324C96.7585 63.324 94.7305 62.472 93.5545 60.768C92.3785 59.04 91.7905 56.664 91.7905 53.64V43.344C91.7905 40.152 92.3665 37.728 93.5185 36.072C94.6705 34.416 96.7105 33.588 99.6385 33.588C102.255 33.588 104.127 34.296 105.255 35.712C106.407 37.128 106.983 39.216 106.983 41.976V44.28H103.131V42.228C103.131 40.884 103.071 39.852 102.951 39.132C102.831 38.412 102.519 37.836 102.015 37.404C101.535 36.972 100.755 36.756 99.6745 36.756C98.5705 36.756 97.7425 36.996 97.1905 37.476C96.6625 37.932 96.3145 38.58 96.1465 39.42C95.9785 40.236 95.8945 41.34 95.8945 42.732V54.288C95.8945 55.776 96.0145 56.94 96.2545 57.78C96.4945 58.62 96.8785 59.22 97.4065 59.58C97.9585 59.94 98.7145 60.12 99.6745 60.12C100.707 60.12 101.475 59.892 101.979 59.436C102.483 58.98 102.795 58.356 102.915 57.564C103.059 56.772 103.131 55.692 103.131 54.324V52.164H106.983V54.324C106.983 57.228 106.431 59.46 105.327 61.02C104.247 62.556 102.351 63.324 99.6385 63.324ZM114.278 63.288C113.486 63.288 112.766 63.06 112.118 62.604C111.494 62.148 111.002 61.548 110.642 60.804C110.282 60.06 110.102 59.28 110.102 58.464C110.102 56.832 110.45 55.512 111.146 54.504C111.842 53.472 112.73 52.656 113.81 52.056C114.89 51.456 116.39 50.772 118.31 50.004V48.528C118.31 47.16 118.166 46.2 117.878 45.648C117.614 45.072 117.062 44.784 116.222 44.784C114.758 44.784 114.026 45.768 114.026 47.736V48.78L110.21 48.636C110.258 46.332 110.786 44.64 111.794 43.56C112.802 42.456 114.362 41.904 116.474 41.904C118.466 41.904 119.906 42.456 120.794 43.56C121.706 44.64 122.162 46.284 122.162 48.492V57.996C122.162 59.556 122.282 61.224 122.522 63H118.994C118.73 61.632 118.562 60.612 118.49 59.94C118.202 60.876 117.698 61.668 116.978 62.316C116.282 62.964 115.382 63.288 114.278 63.288ZM115.79 59.976C116.294 59.976 116.786 59.784 117.266 59.4C117.746 58.992 118.094 58.608 118.31 58.248V52.344C117.278 52.92 116.474 53.424 115.898 53.856C115.346 54.264 114.878 54.744 114.494 55.296C114.134 55.848 113.954 56.508 113.954 57.276C113.954 58.14 114.11 58.812 114.422 59.292C114.734 59.748 115.19 59.976 115.79 59.976ZM126.222 33.84H130.074V63H126.222V33.84ZM139.849 63.288C138.241 63.288 136.993 62.988 136.105 62.388C135.217 61.764 134.593 60.852 134.233 59.652C133.873 58.452 133.693 56.892 133.693 54.972V50.22C133.693 47.34 134.137 45.24 135.025 43.92C135.937 42.576 137.545 41.904 139.849 41.904C141.529 41.904 142.789 42.252 143.629 42.948C144.493 43.644 145.057 44.628 145.321 45.9C145.609 47.148 145.753 48.84 145.753 50.976V52.668H137.545V56.844C137.545 58.116 137.725 59.04 138.085 59.616C138.469 60.168 139.069 60.444 139.885 60.444C140.701 60.444 141.253 60.168 141.541 59.616C141.829 59.04 141.973 58.176 141.973 57.024V55.764H145.717V56.556C145.717 58.74 145.249 60.408 144.313 61.56C143.377 62.712 141.889 63.288 139.849 63.288ZM141.973 50.58V48.708C141.973 47.292 141.829 46.284 141.541 45.684C141.277 45.06 140.701 44.748 139.813 44.748C139.189 44.748 138.709 44.892 138.373 45.18C138.061 45.468 137.845 45.948 137.725 46.62C137.605 47.268 137.545 48.216 137.545 49.464V50.58H141.973ZM149.241 42.192H153.093V44.244C154.749 42.684 156.441 41.904 158.169 41.904C159.297 41.904 160.101 42.312 160.581 43.128C161.061 43.944 161.301 44.952 161.301 46.152V63H157.449V47.268C157.449 46.476 157.329 45.888 157.089 45.504C156.849 45.12 156.417 44.928 155.793 44.928C155.025 44.928 154.125 45.36 153.093 46.224V63H149.241V42.192ZM169.885 63.288C168.085 63.288 166.765 62.64 165.925 61.344C165.085 60.024 164.665 57.852 164.665 54.828V50.796C164.665 48.036 165.025 45.864 165.745 44.28C166.489 42.696 167.833 41.904 169.777 41.904C171.001 41.904 172.153 42.444 173.233 43.524V33.84H177.085V63H173.233V61.668C172.225 62.748 171.109 63.288 169.885 63.288ZM170.857 60.264C171.625 60.264 172.417 60 173.233 59.472V45.828C172.345 45.228 171.529 44.928 170.785 44.928C169.273 44.928 168.517 46.38 168.517 49.284V55.152C168.517 56.832 168.673 58.104 168.985 58.968C169.297 59.832 169.921 60.264 170.857 60.264ZM184.731 63.288C183.939 63.288 183.219 63.06 182.571 62.604C181.947 62.148 181.455 61.548 181.095 60.804C180.735 60.06 180.555 59.28 180.555 58.464C180.555 56.832 180.903 55.512 181.599 54.504C182.295 53.472 183.183 52.656 184.263 52.056C185.343 51.456 186.843 50.772 188.763 50.004V48.528C188.763 47.16 188.619 46.2 188.331 45.648C188.067 45.072 187.515 44.784 186.675 44.784C185.211 44.784 184.479 45.768 184.479 47.736V48.78L180.663 48.636C180.711 46.332 181.239 44.64 182.247 43.56C183.255 42.456 184.815 41.904 186.927 41.904C188.919 41.904 190.359 42.456 191.247 43.56C192.159 44.64 192.615 46.284 192.615 48.492V57.996C192.615 59.556 192.735 61.224 192.975 63H189.447C189.183 61.632 189.015 60.612 188.943 59.94C188.655 60.876 188.151 61.668 187.431 62.316C186.735 62.964 185.835 63.288 184.731 63.288ZM186.243 59.976C186.747 59.976 187.239 59.784 187.719 59.4C188.199 58.992 188.547 58.608 188.763 58.248V52.344C187.731 52.92 186.927 53.424 186.351 53.856C185.799 54.264 185.331 54.744 184.947 55.296C184.587 55.848 184.407 56.508 184.407 57.276C184.407 58.14 184.563 58.812 184.875 59.292C185.187 59.748 185.643 59.976 186.243 59.976ZM196.423 42.192H200.275V45.144C200.995 43.968 201.727 43.14 202.471 42.66C203.239 42.18 204.043 41.94 204.883 41.94C205.099 41.94 205.303 41.952 205.495 41.976V46.224C204.727 45.936 204.019 45.792 203.371 45.792C202.747 45.792 202.183 45.948 201.679 46.26C201.199 46.548 200.731 47.064 200.275 47.808V63H196.423V42.192Z" fill="white"/>
<defs>
<filter id="filter0_d" x="9.2066" y="12.0413" width="273.298" height="85.2975" filterUnits="userSpaceOnUse" color-interpolation-filters="sRGB">
<feFlood flood-opacity="0" result="BackgroundImageFix"/>
<feColorMatrix in="SourceAlpha" type="matrix" values="0 0 0 0 0 0 0 0 0 0 0 0 0 0 0 0 0 0 127 0"/>
<feOffset dy="4"/>
<feGaussianBlur stdDeviation="2"/>
<feColorMatrix type="matrix" values="0 0 0 0 0 0 0 0 0 0 0 0 0 0 0 0 0 0 0.25 0"/>
<feBlend mode="normal" in2="BackgroundImageFix" result="effect1_dropShadow"/>
<feBlend mode="normal" in="SourceGraphic" in2="effect1_dropShadow" result="shape"/>
</filter>
<filter id="filter1_d" x="20.0826" y="0" width="256.595" height="97.3388" filterUnits="userSpaceOnUse" color-interpolation-filters="sRGB">
<feFlood flood-opacity="0" result="BackgroundImageFix"/>
<feColorMatrix in="SourceAlpha" type="matrix" values="0 0 0 0 0 0 0 0 0 0 0 0 0 0 0 0 0 0 127 0"/>
<feOffset dy="4"/>
<feGaussianBlur stdDeviation="2"/>
<feColorMatrix type="matrix" values="0 0 0 0 0 0 0 0 0 0 0 0 0 0 0 0 0 0 0.25 0"/>
<feBlend mode="normal" in2="BackgroundImageFix" result="effect1_dropShadow"/>
<feBlend mode="normal" in="SourceGraphic" in2="effect1_dropShadow" result="shape"/>
</filter>
</defs>
</svg>
