<svg width="283" height="103" viewBox="0 0 283 103" fill="none" xmlns="http://www.w3.org/2000/svg">
<g filter="url(#filter0_d)">
<path d="M278.504 12.0414L24.4711 16.3141L13.2066 75.7439L261.802 89.3389L278.504 12.0414Z" fill="#EDE912" fill-opacity="0.9"/>
</g>
<g filter="url(#filter1_d)">
<path d="M272.678 0L26.4132 28.7438L24.0826 89.3388L254.033 72.2479L272.678 0Z" fill="#0CA195" fill-opacity="0.88"/>
</g>
<circle cx="135.562" cy="97.4959" r="4.27273" stroke="black"/>
<path d="M3.49586 59.0413V66.033" stroke="black"/>
<path d="M0 62.5371H6.99174" stroke="black"/>
<path d="M161.975 95.5537V102.545" stroke="black"/>
<path d="M158.479 99.0496H165.471" stroke="black"/>
<path d="M278.504 66.0331V73.0248" stroke="black"/>
<path d="M275.008 69.5289H282" stroke="black"/>
<path d="M5.96509 92.4001L12.4615 87.9601L13.1851 95.7955L5.96509 92.4001Z" stroke="black"/>
<path d="M59.2289 33.84H66.4649C68.9849 33.84 70.8089 34.524 71.9369 35.892C73.0889 37.26 73.6649 39.264 73.6649 41.904C73.6649 44.28 73.0529 46.128 71.8289 47.448C70.6049 48.768 68.8289 49.428 66.5009 49.428H63.2969V63H59.2289V33.84ZM65.1689 46.512C66.3689 46.512 67.2929 46.38 67.9409 46.116C68.6129 45.852 69.0929 45.396 69.3809 44.748C69.6689 44.1 69.8129 43.164 69.8129 41.94C69.8129 40.452 69.7049 39.36 69.4889 38.664C69.2729 37.968 68.8409 37.476 68.1929 37.188C67.5689 36.9 66.5729 36.756 65.2049 36.756H63.2969V46.512H65.1689ZM76.3098 33.84H80.1618V44.352C81.8898 42.72 83.6298 41.904 85.3818 41.904C86.5098 41.904 87.3018 42.312 87.7578 43.128C88.2378 43.944 88.4778 44.952 88.4778 46.152V63H84.6258V47.268C84.6258 46.476 84.5058 45.888 84.2658 45.504C84.0258 45.12 83.5938 44.928 82.9698 44.928C82.1298 44.928 81.1938 45.384 80.1618 46.296V63H76.3098V33.84ZM97.9571 63.288C95.7491 63.288 94.1771 62.64 93.2411 61.344C92.3291 60.024 91.8731 58.116 91.8731 55.62V49.572C91.8731 47.076 92.3291 45.18 93.2411 43.884C94.1771 42.564 95.7491 41.904 97.9571 41.904C100.141 41.904 101.689 42.564 102.601 43.884C103.537 45.18 104.005 47.076 104.005 49.572V55.62C104.005 58.116 103.537 60.024 102.601 61.344C101.689 62.64 100.141 63.288 97.9571 63.288ZM97.9571 60.444C98.6531 60.444 99.1571 60.24 99.4691 59.832C99.7811 59.424 99.9731 58.92 100.045 58.32C100.117 57.72 100.153 56.904 100.153 55.872V49.356C100.153 48.324 100.117 47.508 100.045 46.908C99.9731 46.284 99.7811 45.768 99.4691 45.36C99.1571 44.952 98.6531 44.748 97.9571 44.748C97.2611 44.748 96.7451 44.952 96.4091 45.36C96.0971 45.768 95.9051 46.284 95.8331 46.908C95.7611 47.508 95.7251 48.324 95.7251 49.356V55.872C95.7251 56.904 95.7611 57.72 95.8331 58.32C95.9051 58.92 96.0971 59.424 96.4091 59.832C96.7451 60.24 97.2611 60.444 97.9571 60.444ZM113.07 63.288C110.07 63.288 108.57 61.632 108.57 58.32V44.748H106.374V42.192H108.57V36.108H112.422V42.192H115.77V44.748H112.422V58.068C112.422 58.908 112.554 59.496 112.818 59.832C113.082 60.168 113.586 60.336 114.33 60.336C114.81 60.336 115.278 60.3 115.734 60.228V63.072C114.774 63.216 113.886 63.288 113.07 63.288ZM124.324 63.288C122.116 63.288 120.544 62.64 119.608 61.344C118.696 60.024 118.24 58.116 118.24 55.62V49.572C118.24 47.076 118.696 45.18 119.608 43.884C120.544 42.564 122.116 41.904 124.324 41.904C126.508 41.904 128.056 42.564 128.968 43.884C129.904 45.18 130.372 47.076 130.372 49.572V55.62C130.372 58.116 129.904 60.024 128.968 61.344C128.056 62.64 126.508 63.288 124.324 63.288ZM124.324 60.444C125.02 60.444 125.524 60.24 125.836 59.832C126.148 59.424 126.34 58.92 126.412 58.32C126.484 57.72 126.52 56.904 126.52 55.872V49.356C126.52 48.324 126.484 47.508 126.412 46.908C126.34 46.284 126.148 45.768 125.836 45.36C125.524 44.952 125.02 44.748 124.324 44.748C123.628 44.748 123.112 44.952 122.776 45.36C122.464 45.768 122.272 46.284 122.2 46.908C122.128 47.508 122.092 48.324 122.092 49.356V55.872C122.092 56.904 122.128 57.72 122.2 58.32C122.272 58.92 122.464 59.424 122.776 59.832C123.112 60.24 123.628 60.444 124.324 60.444ZM149.392 63.36C146.752 63.36 144.844 62.532 143.668 60.876C142.492 59.196 141.904 56.712 141.904 53.424V43.668C141.904 41.412 142.132 39.564 142.588 38.124C143.068 36.66 143.872 35.544 145 34.776C146.152 33.984 147.724 33.588 149.716 33.588C152.404 33.588 154.336 34.272 155.512 35.64C156.712 37.008 157.312 39.156 157.312 42.084V43.164H153.496V42.264C153.496 40.872 153.412 39.804 153.244 39.06C153.076 38.292 152.716 37.716 152.164 37.332C151.636 36.948 150.844 36.756 149.788 36.756C148.66 36.756 147.82 37.02 147.268 37.548C146.716 38.052 146.356 38.736 146.188 39.6C146.044 40.464 145.972 41.616 145.972 43.056V53.856C145.972 56.088 146.236 57.696 146.764 58.68C147.316 59.64 148.36 60.12 149.896 60.12C151.408 60.12 152.44 59.592 152.992 58.536C153.568 57.48 153.856 55.788 153.856 53.46V51.444H150.148V48.564H157.528V63H154.972L154.576 59.652C153.664 62.124 151.936 63.36 149.392 63.36ZM165.129 63.288C164.337 63.288 163.617 63.06 162.969 62.604C162.345 62.148 161.853 61.548 161.493 60.804C161.133 60.06 160.953 59.28 160.953 58.464C160.953 56.832 161.301 55.512 161.997 54.504C162.693 53.472 163.581 52.656 164.661 52.056C165.741 51.456 167.241 50.772 169.161 50.004V48.528C169.161 47.16 169.017 46.2 168.729 45.648C168.465 45.072 167.913 44.784 167.073 44.784C165.609 44.784 164.877 45.768 164.877 47.736V48.78L161.061 48.636C161.109 46.332 161.637 44.64 162.645 43.56C163.653 42.456 165.213 41.904 167.325 41.904C169.317 41.904 170.757 42.456 171.645 43.56C172.557 44.64 173.013 46.284 173.013 48.492V57.996C173.013 59.556 173.133 61.224 173.373 63H169.845C169.581 61.632 169.413 60.612 169.341 59.94C169.053 60.876 168.549 61.668 167.829 62.316C167.133 62.964 166.233 63.288 165.129 63.288ZM166.641 59.976C167.145 59.976 167.637 59.784 168.117 59.4C168.597 58.992 168.945 58.608 169.161 58.248V52.344C168.129 52.92 167.325 53.424 166.749 53.856C166.197 54.264 165.729 54.744 165.345 55.296C164.985 55.848 164.805 56.508 164.805 57.276C164.805 58.14 164.961 58.812 165.273 59.292C165.585 59.748 166.041 59.976 166.641 59.976ZM177.074 33.84H180.926V63H177.074V33.84ZM185.3 33.84H189.152V63H185.3V33.84ZM198.927 63.288C197.319 63.288 196.071 62.988 195.183 62.388C194.295 61.764 193.671 60.852 193.311 59.652C192.951 58.452 192.771 56.892 192.771 54.972V50.22C192.771 47.34 193.215 45.24 194.103 43.92C195.015 42.576 196.623 41.904 198.927 41.904C200.607 41.904 201.867 42.252 202.707 42.948C203.571 43.644 204.135 44.628 204.399 45.9C204.687 47.148 204.831 48.84 204.831 50.976V52.668H196.623V56.844C196.623 58.116 196.803 59.04 197.163 59.616C197.547 60.168 198.147 60.444 198.963 60.444C199.779 60.444 200.331 60.168 200.619 59.616C200.907 59.04 201.051 58.176 201.051 57.024V55.764H204.795V56.556C204.795 58.74 204.327 60.408 203.391 61.56C202.455 62.712 200.967 63.288 198.927 63.288ZM201.051 50.58V48.708C201.051 47.292 200.907 46.284 200.619 45.684C200.355 45.06 199.779 44.748 198.891 44.748C198.267 44.748 197.787 44.892 197.451 45.18C197.139 45.468 196.923 45.948 196.803 46.62C196.683 47.268 196.623 48.216 196.623 49.464V50.58H201.051ZM208.427 42.192H212.279V45.144C212.999 43.968 213.731 43.14 214.475 42.66C215.243 42.18 216.047 41.94 216.887 41.94C217.103 41.94 217.307 41.952 217.499 41.976V46.224C216.731 45.936 216.023 45.792 215.375 45.792C214.751 45.792 214.187 45.948 213.683 46.26C213.203 46.548 212.735 47.064 212.279 47.808V63H208.427V42.192ZM219.561 65.268C221.001 65.268 221.985 65.16 222.513 64.944C223.065 64.728 223.341 64.32 223.341 63.72C223.341 63.432 223.077 62.16 222.549 59.904L218.373 42.192H222.261L225.069 57.744L227.769 42.192H231.657L226.689 64.152C226.353 65.616 225.645 66.66 224.565 67.284C223.485 67.908 221.973 68.22 220.029 68.22H219.561V65.268Z" fill="white"/>
<defs>
<filter id="filter0_d" x="9.2066" y="12.0414" width="273.298" height="85.2975" filterUnits="userSpaceOnUse" color-interpolation-filters="sRGB">
<feFlood flood-opacity="0" result="BackgroundImageFix"/>
<feColorMatrix in="SourceAlpha" type="matrix" values="0 0 0 0 0 0 0 0 0 0 0 0 0 0 0 0 0 0 127 0"/>
<feOffset dy="4"/>
<feGaussianBlur stdDeviation="2"/>
<feColorMatrix type="matrix" values="0 0 0 0 0 0 0 0 0 0 0 0 0 0 0 0 0 0 0.25 0"/>
<feBlend mode="normal" in2="BackgroundImageFix" result="effect1_dropShadow"/>
<feBlend mode="normal" in="SourceGraphic" in2="effect1_dropShadow" result="shape"/>
</filter>
<filter id="filter1_d" x="20.0826" y="0" width="256.595" height="97.3388" filterUnits="userSpaceOnUse" color-interpolation-filters="sRGB">
<feFlood flood-opacity="0" result="BackgroundImageFix"/>
<feColorMatrix in="SourceAlpha" type="matrix" values="0 0 0 0 0 0 0 0 0 0 0 0 0 0 0 0 0 0 127 0"/>
<feOffset dy="4"/>
<feGaussianBlur stdDeviation="2"/>
<feColorMatrix type="matrix" values="0 0 0 0 0 0 0 0 0 0 0 0 0 0 0 0 0 0 0.25 0"/>
<feBlend mode="normal" in2="BackgroundImageFix" result="effect1_dropShadow"/>
<feBlend mode="normal" in="SourceGraphic" in2="effect1_dropShadow" result="shape"/>
</filter>
</defs>
</svg>
